<svg width="2400" height="293" xmlns="http://www.w3.org/2000/svg" xmlns:xlink="http://www.w3.org/1999/xlink" xml:space="preserve" overflow="hidden"><defs><clipPath id="clip0"><rect x="714" y="632" width="2400" height="293"/></clipPath></defs><g clip-path="url(#clip0)" transform="translate(-714 -632)"><path d="M1576.5 697.5C1576.5 668.781 1599.78 645.5 1628.5 645.5 1657.22 645.5 1680.5 668.781 1680.5 697.5 1680.5 726.219 1657.22 749.5 1628.5 749.5 1599.78 749.5 1576.5 726.219 1576.5 697.5Z" stroke="#000000" stroke-width="4.58333" stroke-miterlimit="8" fill="#FFFFFF" fill-rule="evenodd"/><text font-family="Consolas,Consolas_MSFontService,sans-serif" font-weight="400" font-size="64" transform="matrix(1 0 0 1 1610.52 720)">2</text><path d="M823 697 1576.63 697" fill="#FFFFFF" fill-rule="evenodd"/><path d="M848.78 691.844 1550.85 691.844 1550.85 702.157 848.78 702.156ZM853.937 712.469 823 697 853.937 681.531ZM1545.69 681.532 1576.63 697 1545.69 712.469Z" fill="#A5A5A5"/><path d="M719.5 697.5C719.5 668.781 742.781 645.5 771.5 645.5 800.219 645.5 823.5 668.781 823.5 697.5 823.5 726.219 800.219 749.5 771.5 749.5 742.781 749.5 719.5 726.219 719.5 697.5Z" stroke="#000000" stroke-width="4.58333" stroke-miterlimit="8" fill="#FFFFFF" fill-rule="evenodd"/><text font-family="Consolas,Consolas_MSFontService,sans-serif" font-weight="400" font-size="64" transform="matrix(1 0 0 1 752.947 720)">1</text><text font-family="SimHei,SimHei_MSFontService,sans-serif" font-weight="400" font-size="64" transform="matrix(1 0 0 1 1071.16 875)">正常理解</text><path d="M3006.5 697.5C3006.5 668.781 3029.78 645.5 3058.5 645.5 3087.22 645.5 3110.5 668.781 3110.5 697.5 3110.5 726.219 3087.22 749.5 3058.5 749.5 3029.78 749.5 3006.5 726.219 3006.5 697.5Z" stroke="#000000" stroke-width="4.58333" stroke-miterlimit="8" fill="#FFFFFF" fill-rule="evenodd"/><text font-family="Consolas,Consolas_MSFontService,sans-serif" font-weight="400" font-size="64" transform="matrix(1 0 0 1 3039.81 720)">2</text><path d="M2148.5 697.5C2148.5 668.781 2171.78 645.5 2200.5 645.5 2229.22 645.5 2252.5 668.781 2252.5 697.5 2252.5 726.219 2229.22 749.5 2200.5 749.5 2171.78 749.5 2148.5 726.219 2148.5 697.5Z" stroke="#000000" stroke-width="4.58333" stroke-miterlimit="8" fill="#FFFFFF" fill-rule="evenodd"/><text font-family="Consolas,Consolas_MSFontService,sans-serif" font-weight="400" font-size="64" transform="matrix(1 0 0 1 2182.24 720)">1</text><path d="M2237.5 657.062 2998.66 657.063 2998.66 663.938 2237.5 663.937ZM2994.07 646.75 3021.57 660.5 2994.07 674.25Z" fill="#A5A5A5"/><path d="M1.58221e-06-3.4375 761.156-3.43715 761.156 3.43785-1.58221e-06 3.4375ZM756.573-13.7497 784.073 0.000360892 756.573 13.7503Z" fill="#A5A5A5" transform="matrix(-1 0 0 1 3021.57 734.5)"/><text font-family="SimHei,SimHei_MSFontService,sans-serif" font-weight="400" font-size="64" transform="matrix(1 0 0 1 2404.2 875)">网络图中的表达</text></g></svg>