<?xml version="1.0" encoding="utf-8"?>
<!-- Generator: Adobe Illustrator 16.0.0, SVG Export Plug-In . SVG Version: 6.00 Build 0)  -->
<!DOCTYPE svg PUBLIC "-//W3C//DTD SVG 1.1//EN" "http://www.w3.org/Graphics/SVG/1.1/DTD/svg11.dtd">
<svg version="1.1"
	 id="图层_1" xmlns:inkscape="http://www.inkscape.org/namespaces/inkscape" xmlns:sodipodi="http://sodipodi.sourceforge.net/DTD/sodipodi-0.dtd" xmlns:svg="http://www.w3.org/2000/svg" inkscape:version="1.2.2 (732a01da63, 2022-12-09)" sodipodi:docname="play.svg"
	 xmlns="http://www.w3.org/2000/svg" xmlns:xlink="http://www.w3.org/1999/xlink" x="0px" y="0px" width="24px" height="24px"
	 viewBox="0 0 24 24" enable-background="new 0 0 24 24" xml:space="preserve">
<sodipodi:namedview  inkscape:cy="12.014337" inkscape:cx="8.0860215" inkscape:zoom="34.875" showgrid="false" borderopacity="0.25" bordercolor="#000000" pagecolor="#ffffff" id="namedview255" inkscape:current-layer="图层_1" inkscape:window-width="1920" inkscape:window-y="-8" inkscape:deskcolor="#d1d1d1" inkscape:pagecheckerboard="0" inkscape:window-maximized="1" inkscape:pageopacity="0.0" inkscape:showpageshadow="2" inkscape:window-x="-8" inkscape:window-height="1017">
	</sodipodi:namedview>
<title  id="title249">ic_fluent_play_24_regular</title>
<desc  id="desc251">Created with Sketch.</desc>
<path id="_xD83C__xDFA8_-Color" inkscape:highlight-color="#000000" d="M6.34,2.275C5.253,1.673,3.884,2.066,3.282,3.153
	C3.097,3.487,3,3.862,3,4.243V19.76c0,1.242,1.007,2.25,2.25,2.25c0.381,0,0.756-0.098,1.09-0.281l14.008-7.76
	c1.088-0.603,1.479-1.972,0.879-3.059c-0.205-0.37-0.51-0.674-0.879-0.878L6.34,2.275z M19.914,11.637
	c0.201,0.362,0.07,0.819-0.293,1.02L5.613,20.415C5.502,20.477,5.377,20.51,5.25,20.51c-0.414,0-0.75-0.336-0.75-0.75V4.243
	c0-0.127,0.032-0.252,0.094-0.363c0.201-0.362,0.657-0.493,1.02-0.292l14.008,7.757C19.744,11.412,19.846,11.514,19.914,11.637z"/>
</svg>
