<svg width="1605" height="243" xmlns="http://www.w3.org/2000/svg" xmlns:xlink="http://www.w3.org/1999/xlink" xml:space="preserve" overflow="hidden"><defs><clipPath id="clip0"><rect x="377" y="324" width="1605" height="243"/></clipPath></defs><g clip-path="url(#clip0)" transform="translate(-377 -324)"><path d="M381.5 453.917 1931.65 453.917C1934.18 453.917 1936.23 455.969 1936.23 458.5 1936.23 461.032 1934.18 463.084 1931.65 463.084L381.5 463.083C378.969 463.083 376.917 461.031 376.917 458.5 376.917 455.969 378.969 453.917 381.5 453.917ZM1906.46 438.5 1940.75 458.5 1906.46 478.501C1904.28 479.777 1901.47 479.038 1900.19 476.852 1898.92 474.665 1899.66 471.859 1901.84 470.583L1929.34 454.541 1929.34 462.459 1901.84 446.418C1899.66 445.142 1898.92 442.336 1900.19 440.149 1901.47 437.963 1904.28 437.224 1906.46 438.5Z" fill="#D5D5D5"/><path d="M641.5 453.917 1161.24 453.917C1163.77 453.917 1165.83 455.969 1165.83 458.5 1165.83 461.032 1163.77 463.084 1161.24 463.084L641.5 463.083C638.969 463.083 636.917 461.031 636.917 458.5 636.917 455.969 638.969 453.917 641.5 453.917ZM641.5 472.25C633.906 472.25 627.75 466.094 627.75 458.5 627.75 450.906 633.906 444.75 641.5 444.75 649.094 444.75 655.25 450.906 655.25 458.5 655.25 466.094 649.094 472.25 641.5 472.25ZM1161.24 444.75C1168.84 444.75 1174.99 450.907 1174.99 458.5 1174.99 466.094 1168.84 472.25 1161.24 472.25 1153.65 472.25 1147.49 466.094 1147.49 458.5 1147.49 450.906 1153.65 444.75 1161.24 444.75Z" fill="#0075C2"/><g><g><g><path d="M1617.76 436.144 1610.86 429.238 1589 451.094 1567.14 429.238 1560.24 436.144 1582.09 458 1560.24 479.856 1567.14 486.763 1589 464.906 1610.86 486.763 1617.76 479.856 1595.91 458Z" fill="#F3982D"/></g></g></g><text fill="#0075C2" font-family="SimHei,SimHei_MSFontService,sans-serif" font-weight="400" font-size="55" transform="matrix(1 0 0 1 763.143 398)">初始搜索域</text><text fill="#F3982D" font-family="SimHei,SimHei_MSFontService,sans-serif" font-weight="400" font-size="55" transform="matrix(1 0 0 1 1533.44 398)">目标</text><path d="M652.298 513.179C651.439 513.179 650.593 513.452 649.76 513.998 648.928 514.544 648.001 515.448 646.981 516.71 645.96 517.972 645.128 519.266 644.483 520.591 643.839 521.916 643.293 523.608 642.845 525.666L642.604 526.794C642.335 528.048 642.201 529.265 642.201 530.447 642.201 531.861 642.51 532.882 643.127 533.508 643.745 534.135 644.77 534.448 646.202 534.448 646.936 534.448 647.634 534.327 648.297 534.086 648.959 533.844 649.635 533.446 650.324 532.891 651.014 532.336 651.667 531.606 652.285 530.702 652.903 529.798 653.471 528.683 653.99 527.358 654.509 526.033 654.912 524.615 655.199 523.102 655.485 521.589 655.628 520.143 655.628 518.765 655.628 516.903 655.364 515.506 654.836 514.575 654.308 513.644 653.462 513.179 652.298 513.179ZM647.599 497.737 649.156 497.737 644.43 516.536 644.779 516.643C646.515 514.316 648.145 512.633 649.667 511.594 651.188 510.556 652.71 510.037 654.232 510.037 656.183 510.037 657.701 510.78 658.784 512.266 659.867 513.752 660.409 515.846 660.409 518.55 660.409 521.504 659.813 524.409 658.623 527.264 657.432 530.12 655.781 532.385 653.668 534.059 651.555 535.733 649.192 536.57 646.578 536.57 644.197 536.57 642.084 535.988 640.24 534.824L637.77 536.57 636.051 536.14 643.006 505.444C643.418 503.618 643.624 502.293 643.624 501.47 643.624 500.718 643.396 500.19 642.939 499.885 642.483 499.581 641.664 499.411 640.482 499.375L640.804 497.978ZM630.411 497.737 631.995 497.737 625.389 527.466C624.995 529.238 624.798 530.563 624.798 531.44 624.798 532.156 624.914 532.676 625.147 532.998 625.38 533.32 625.747 533.481 626.248 533.481 626.785 533.481 627.358 533.262 627.967 532.823 628.576 532.385 629.435 531.548 630.545 530.312L632.076 531.816C630.339 533.643 628.92 534.891 627.819 535.563 626.718 536.234 625.487 536.57 624.126 536.57 622.963 536.57 622.032 536.145 621.333 535.294 620.635 534.444 620.286 533.356 620.286 532.031 620.286 530.832 620.537 529.095 621.038 526.821L625.845 505.31C626.06 504.361 626.212 503.605 626.302 503.041 626.391 502.477 626.436 501.953 626.436 501.47 626.436 500.933 626.338 500.525 626.141 500.248 625.944 499.97 625.662 499.769 625.295 499.643 624.928 499.518 624.27 499.429 623.321 499.375L623.643 497.978Z" fill="#0075C2" fill-rule="evenodd"/><text fill="#000000" fill-opacity="0" font-family="Arial,Arial_MSFontService,sans-serif" font-size="38.833" x="620.286" y="531.716">𝑙𝑏</text><path d="M1179.81 511.316C1178.95 511.316 1178.1 511.59 1177.27 512.136 1176.44 512.682 1175.51 513.586 1174.49 514.848 1173.47 516.11 1172.64 517.404 1171.99 518.729 1171.35 520.053 1170.8 521.745 1170.36 523.804L1170.11 524.932C1169.85 526.185 1169.71 527.403 1169.71 528.585 1169.71 529.999 1170.02 531.019 1170.64 531.646 1171.26 532.273 1172.28 532.586 1173.71 532.586 1174.45 532.586 1175.15 532.465 1175.81 532.223 1176.47 531.982 1177.15 531.583 1177.84 531.028 1178.53 530.473 1179.18 529.744 1179.8 528.84 1180.41 527.936 1180.98 526.821 1181.5 525.496 1182.02 524.171 1182.42 522.752 1182.71 521.24 1183 519.727 1183.14 518.281 1183.14 516.902 1183.14 515.04 1182.88 513.644 1182.35 512.713 1181.82 511.782 1180.97 511.316 1179.81 511.316ZM1137.77 508.148C1138.91 508.148 1139.82 508.532 1140.48 509.302 1141.14 510.072 1141.47 511.111 1141.47 512.418 1141.47 513.832 1141.19 515.595 1140.64 517.708L1139.46 522.354C1139.15 523.536 1138.93 524.458 1138.8 525.12 1138.67 525.783 1138.57 526.356 1138.5 526.839 1138.44 527.322 1138.41 527.725 1138.41 528.047 1138.41 529.283 1138.62 530.173 1139.03 530.72 1139.44 531.266 1140.11 531.539 1141.04 531.539 1141.79 531.539 1142.6 531.239 1143.47 530.639 1144.34 530.039 1145.26 529.135 1146.24 527.927 1147.21 526.718 1148 525.545 1148.59 524.409 1149.18 523.272 1149.66 521.871 1150.04 520.206L1152.59 508.577 1157.24 508.577 1153.31 525.604C1152.92 527.322 1152.72 528.647 1152.72 529.578 1152.72 530.294 1152.84 530.814 1153.07 531.136 1153.31 531.458 1153.67 531.619 1154.17 531.619 1154.71 531.619 1155.28 531.4 1155.89 530.961 1156.5 530.523 1157.36 529.686 1158.47 528.45L1160 529.954C1158.37 531.691 1156.99 532.917 1155.84 533.633 1154.69 534.349 1153.48 534.708 1152.19 534.708 1151.08 534.708 1150.19 534.341 1149.53 533.607 1148.87 532.872 1148.53 531.897 1148.53 530.679 1148.53 529.712 1148.75 528.656 1149.18 527.51L1148.86 527.403C1147.08 529.891 1145.41 531.727 1143.82 532.908 1142.24 534.09 1140.61 534.681 1138.95 534.681 1137.28 534.681 1136 534.202 1135.11 533.244 1134.21 532.286 1133.76 530.957 1133.76 529.256 1133.76 528.128 1134.02 526.526 1134.54 524.449L1136.29 517.413C1136.77 515.461 1137.01 514.083 1137.01 513.277 1137.01 512.561 1136.9 512.042 1136.66 511.719 1136.43 511.397 1136.06 511.236 1135.56 511.236 1135.01 511.236 1134.42 511.464 1133.8 511.921 1133.19 512.377 1132.34 513.205 1131.27 514.405L1129.74 512.901C1131.26 511.361 1132.4 510.305 1133.17 509.732 1133.94 509.159 1134.68 508.752 1135.39 508.51 1136.1 508.268 1136.89 508.148 1137.77 508.148ZM1175.11 495.875 1176.67 495.875 1171.94 514.673 1172.29 514.781C1174.03 512.453 1175.66 510.77 1177.18 509.732 1178.7 508.694 1180.22 508.174 1181.74 508.174 1183.69 508.174 1185.21 508.917 1186.3 510.403 1187.38 511.889 1187.92 513.984 1187.92 516.688 1187.92 519.642 1187.32 522.547 1186.13 525.402 1184.94 528.258 1183.29 530.523 1181.18 532.197 1179.07 533.871 1176.7 534.708 1174.09 534.708 1171.71 534.708 1169.6 534.126 1167.75 532.962L1165.28 534.708 1163.56 534.278 1170.52 503.582C1170.93 501.756 1171.14 500.431 1171.14 499.607 1171.14 498.856 1170.91 498.327 1170.45 498.023 1169.99 497.719 1169.17 497.549 1167.99 497.513L1168.32 496.116Z" fill="#0075C2" fill-rule="evenodd"/><text fill="#000000" fill-opacity="0" font-family="Arial,Arial_MSFontService,sans-serif" font-size="38.833" x="1129.74" y="529.853">𝑢𝑏</text></g></svg>