<svg width="1605" height="241" xmlns="http://www.w3.org/2000/svg" xmlns:xlink="http://www.w3.org/1999/xlink" xml:space="preserve" overflow="hidden"><defs><clipPath id="clip0"><rect x="2456" y="324" width="1605" height="241"/></clipPath></defs><g clip-path="url(#clip0)" transform="translate(-2456 -324)"><path d="M2460.5 453.917 4010.65 453.917C4013.18 453.917 4015.23 455.969 4015.23 458.5 4015.23 461.032 4013.18 463.084 4010.65 463.084L2460.5 463.083C2457.97 463.083 2455.92 461.031 2455.92 458.5 2455.92 455.969 2457.97 453.917 2460.5 453.917ZM3985.46 438.5 4019.75 458.5 3985.46 478.501C3983.28 479.777 3980.47 479.038 3979.19 476.852 3977.92 474.665 3978.66 471.859 3980.84 470.583L4008.34 454.541 4008.34 462.459 3980.84 446.418C3978.66 445.142 3977.92 442.336 3979.19 440.149 3980.47 437.963 3983.28 437.224 3985.46 438.5Z" fill="#D5D5D5"/><path d="M2719.5 453.917 3239.24 453.917C3241.77 453.917 3243.83 455.969 3243.83 458.5 3243.83 461.032 3241.77 463.084 3239.24 463.084L2719.5 463.083C2716.97 463.083 2714.92 461.031 2714.92 458.5 2714.92 455.969 2716.97 453.917 2719.5 453.917ZM2719.5 472.25C2711.91 472.25 2705.75 466.094 2705.75 458.5 2705.75 450.906 2711.91 444.75 2719.5 444.75 2727.09 444.75 2733.25 450.906 2733.25 458.5 2733.25 466.094 2727.09 472.25 2719.5 472.25ZM3239.24 444.75C3246.84 444.75 3252.99 450.907 3252.99 458.5 3252.99 466.094 3246.84 472.25 3239.24 472.25 3231.65 472.25 3225.49 466.094 3225.49 458.5 3225.49 450.906 3231.65 444.75 3239.24 444.75Z" fill="#0075C2"/><g><g><g><path d="M3696.76 436.144 3689.86 429.238 3668 451.094 3646.14 429.238 3639.24 436.144 3661.09 458 3639.24 479.856 3646.14 486.763 3668 464.906 3689.86 486.763 3696.76 479.856 3674.91 458Z" fill="#F3982D"/></g></g></g><text fill="#0075C2" font-family="SimHei,SimHei_MSFontService,sans-serif" font-weight="400" font-size="55" transform="matrix(1 0 0 1 2841.87 398)">åˆå§‹æœç´¢åŸŸ</text><text fill="#F3982D" font-family="SimHei,SimHei_MSFontService,sans-serif" font-weight="400" font-size="55" transform="matrix(1 0 0 1 3612.16 398)">ç›®æ ‡</text><path d="M2679.89 511.316C2679.03 511.316 2678.18 511.589 2677.35 512.135 2676.52 512.681 2675.59 513.585 2674.57 514.848 2673.55 516.11 2672.72 517.403 2672.07 518.728 2671.43 520.053 2670.88 521.745 2670.44 523.804L2670.19 524.932C2669.93 526.185 2669.79 527.403 2669.79 528.584 2669.79 529.999 2670.1 531.019 2670.72 531.646 2671.34 532.272 2672.36 532.586 2673.79 532.586 2674.53 532.586 2675.22 532.465 2675.89 532.223 2676.55 531.981 2677.23 531.583 2677.91 531.028 2678.6 530.473 2679.26 529.743 2679.88 528.839 2680.49 527.935 2681.06 526.821 2681.58 525.496 2682.1 524.171 2682.5 522.752 2682.79 521.239 2683.08 519.726 2683.22 518.281 2683.22 516.902 2683.22 515.04 2682.95 513.644 2682.43 512.713 2681.9 511.782 2681.05 511.316 2679.89 511.316ZM2675.19 495.874 2676.75 495.874 2672.02 514.673 2672.37 514.78C2674.11 512.453 2675.74 510.77 2677.26 509.732 2678.78 508.693 2680.3 508.174 2681.82 508.174 2683.77 508.174 2685.29 508.917 2686.37 510.403 2687.46 511.889 2688 513.984 2688 516.687 2688 519.641 2687.4 522.546 2686.21 525.402 2685.02 528.257 2683.37 530.522 2681.26 532.196 2679.15 533.87 2676.78 534.707 2674.17 534.707 2671.79 534.707 2669.67 534.125 2667.83 532.962L2665.36 534.707 2663.64 534.278 2670.6 503.582C2671.01 501.756 2671.21 500.431 2671.21 499.607 2671.21 498.855 2670.99 498.327 2670.53 498.023 2670.07 497.718 2669.25 497.548 2668.07 497.512L2668.39 496.116ZM2658 495.874 2659.59 495.874 2652.98 525.603C2652.59 527.376 2652.39 528.701 2652.39 529.578 2652.39 530.294 2652.5 530.813 2652.74 531.135 2652.97 531.458 2653.34 531.619 2653.84 531.619 2654.38 531.619 2654.95 531.4 2655.56 530.961 2656.17 530.522 2657.03 529.685 2658.14 528.45L2659.67 529.954C2657.93 531.78 2656.51 533.029 2655.41 533.7 2654.31 534.372 2653.08 534.707 2651.72 534.707 2650.55 534.707 2649.62 534.282 2648.92 533.432 2648.23 532.581 2647.88 531.494 2647.88 530.169 2647.88 528.969 2648.13 527.232 2648.63 524.959L2653.44 503.447C2653.65 502.499 2653.8 501.742 2653.89 501.178 2653.98 500.614 2654.03 500.091 2654.03 499.607 2654.03 499.07 2653.93 498.663 2653.73 498.385 2653.53 498.108 2653.25 497.906 2652.89 497.781 2652.52 497.656 2651.86 497.566 2650.91 497.512L2651.23 496.116Z" fill="#0075C2" fill-rule="evenodd"/><text fill="#000000" fill-opacity="0" font-family="Arial,Arial_MSFontService,sans-serif" font-size="38.833" x="2647.88" y="529.853">ğ‘™ğ‘</text><path d="M2744.84 501.89 2744.84 505.918 2715.68 518.567 2744.84 531.216 2744.84 535.244 2711.65 520.447 2711.65 516.687Z" fill="#0075C2" fill-rule="evenodd"/><text fill="#000000" fill-opacity="0" font-family="Arial,Arial_MSFontService,sans-serif" font-size="33.3545" x="2711.65" y="531.075">&lt;</text><path d="M2779.41 499.473C2778.18 499.473 2777.14 499.84 2776.31 500.574 2775.48 501.308 2774.81 502.364 2774.3 503.743 2773.79 505.121 2773.42 506.8 2773.21 508.778 2772.99 510.757 2772.89 512.99 2772.89 515.479 2772.89 521.315 2773.43 525.599 2774.51 528.329 2775.59 531.059 2777.27 532.424 2779.55 532.424 2781.71 532.424 2783.32 531.14 2784.37 528.571 2785.41 526.002 2785.94 522.022 2785.94 516.633 2785.94 512.516 2785.67 509.181 2785.13 506.63 2784.6 504.079 2783.85 502.248 2782.89 501.138 2781.93 500.028 2780.77 499.473 2779.41 499.473ZM2779.55 497.19C2783.47 497.19 2786.39 498.703 2788.3 501.729 2790.22 504.754 2791.17 509.329 2791.17 515.452 2791.17 521.79 2790.15 526.583 2788.1 529.833 2786.05 533.082 2783.06 534.707 2779.12 534.707 2775.25 534.707 2772.37 533.185 2770.48 530.142 2768.59 527.098 2767.65 522.479 2767.65 516.284 2767.65 512.99 2767.94 510.143 2768.52 507.744 2769.1 505.345 2769.92 503.362 2770.97 501.796 2772.01 500.229 2773.27 499.07 2774.74 498.318 2776.21 497.566 2777.81 497.19 2779.55 497.19Z" fill="#0075C2" fill-rule="evenodd"/><text fill="#000000" fill-opacity="0" font-family="Arial,Arial_MSFontService,sans-serif" font-size="37.5171" x="2767.65" y="530.018">0</text><path d="M3207.4 511.316C3206.54 511.316 3205.7 511.59 3204.86 512.136 3204.03 512.682 3203.1 513.586 3202.08 514.848 3201.06 516.11 3200.23 517.404 3199.59 518.729 3198.94 520.053 3198.39 521.745 3197.95 523.804L3197.71 524.932C3197.44 526.185 3197.3 527.403 3197.3 528.585 3197.3 529.999 3197.61 531.019 3198.23 531.646 3198.85 532.273 3199.87 532.586 3201.3 532.586 3202.04 532.586 3202.74 532.465 3203.4 532.223 3204.06 531.982 3204.74 531.583 3205.43 531.028 3206.12 530.473 3206.77 529.744 3207.39 528.84 3208 527.936 3208.57 526.821 3209.09 525.496 3209.61 524.171 3210.01 522.752 3210.3 521.24 3210.59 519.727 3210.73 518.281 3210.73 516.902 3210.73 515.04 3210.47 513.644 3209.94 512.713 3209.41 511.782 3208.56 511.316 3207.4 511.316ZM3165.36 508.148C3166.5 508.148 3167.41 508.532 3168.07 509.302 3168.73 510.072 3169.06 511.111 3169.06 512.418 3169.06 513.832 3168.78 515.595 3168.23 517.708L3167.05 522.354C3166.74 523.536 3166.52 524.458 3166.39 525.12 3166.26 525.783 3166.16 526.356 3166.09 526.839 3166.03 527.322 3166 527.725 3166 528.047 3166 529.283 3166.21 530.173 3166.62 530.72 3167.03 531.266 3167.7 531.539 3168.63 531.539 3169.38 531.539 3170.19 531.239 3171.06 530.639 3171.93 530.039 3172.85 529.135 3173.83 527.927 3174.81 526.718 3175.59 525.545 3176.18 524.409 3176.77 523.272 3177.25 521.871 3177.63 520.206L3180.18 508.577 3184.83 508.577 3180.91 525.604C3180.51 527.322 3180.31 528.647 3180.31 529.578 3180.31 530.294 3180.43 530.814 3180.66 531.136 3180.9 531.458 3181.26 531.619 3181.77 531.619 3182.3 531.619 3182.88 531.4 3183.48 530.961 3184.09 530.523 3184.95 529.686 3186.06 528.45L3187.59 529.954C3185.96 531.691 3184.58 532.917 3183.43 533.633 3182.28 534.349 3181.07 534.708 3179.78 534.708 3178.67 534.708 3177.78 534.341 3177.12 533.607 3176.46 532.872 3176.13 531.897 3176.13 530.679 3176.13 529.712 3176.34 528.656 3176.77 527.51L3176.45 527.403C3174.68 529.891 3173 531.727 3171.41 532.908 3169.83 534.09 3168.2 534.681 3166.54 534.681 3164.87 534.681 3163.59 534.202 3162.7 533.244 3161.8 532.286 3161.35 530.957 3161.35 529.256 3161.35 528.128 3161.61 526.526 3162.13 524.449L3163.88 517.413C3164.36 515.461 3164.6 514.083 3164.6 513.277 3164.6 512.561 3164.49 512.042 3164.26 511.719 3164.02 511.397 3163.66 511.236 3163.15 511.236 3162.6 511.236 3162.01 511.464 3161.4 511.921 3160.78 512.377 3159.93 513.205 3158.86 514.405L3157.33 512.901C3158.85 511.361 3159.99 510.305 3160.76 509.732 3161.53 509.159 3162.27 508.752 3162.98 508.51 3163.69 508.268 3164.48 508.148 3165.36 508.148ZM3202.7 495.875 3204.26 495.875 3199.53 514.673 3199.88 514.781C3201.62 512.453 3203.25 510.77 3204.77 509.732 3206.29 508.694 3207.81 508.174 3209.33 508.174 3211.29 508.174 3212.8 508.917 3213.89 510.403 3214.97 511.889 3215.51 513.984 3215.51 516.688 3215.51 519.642 3214.92 522.547 3213.72 525.402 3212.53 528.258 3210.88 530.523 3208.77 532.197 3206.66 533.871 3204.29 534.708 3201.68 534.708 3199.3 534.708 3197.19 534.126 3195.34 532.962L3192.87 534.708 3191.15 534.278 3198.11 503.582C3198.52 501.756 3198.73 500.431 3198.73 499.607 3198.73 498.856 3198.5 498.327 3198.04 498.023 3197.58 497.719 3196.77 497.549 3195.58 497.513L3195.91 496.116Z" fill="#0075C2" fill-rule="evenodd"/><text fill="#000000" fill-opacity="0" font-family="Arial,Arial_MSFontService,sans-serif" font-size="38.833" x="3157.33" y="529.853">ğ‘¢ğ‘</text><path d="M3271.68 501.89 3271.68 505.919 3242.51 518.567 3271.68 531.216 3271.68 535.245 3238.49 520.447 3238.49 516.688Z" fill="#0075C2" fill-rule="evenodd"/><text fill="#000000" fill-opacity="0" font-family="Arial,Arial_MSFontService,sans-serif" font-size="33.3545" x="3238.49" y="531.075">&lt;</text><path d="M3306.25 499.473C3305.01 499.473 3303.98 499.84 3303.14 500.574 3302.31 501.308 3301.64 502.365 3301.13 503.743 3300.62 505.122 3300.26 506.8 3300.04 508.779 3299.83 510.757 3299.72 512.99 3299.72 515.479 3299.72 521.316 3300.26 525.599 3301.35 528.329 3302.43 531.06 3304.11 532.425 3306.38 532.425 3308.55 532.425 3310.15 531.14 3311.2 528.571 3312.25 526.002 3312.77 522.023 3312.77 516.634 3312.77 512.516 3312.5 509.181 3311.97 506.63 3311.43 504.079 3310.68 502.248 3309.72 501.138 3308.77 500.028 3307.61 499.473 3306.25 499.473ZM3306.38 497.19C3310.3 497.19 3313.22 498.703 3315.14 501.729 3317.05 504.755 3318.01 509.329 3318.01 515.452 3318.01 521.79 3316.98 526.584 3314.93 529.833 3312.88 533.083 3309.89 534.708 3305.95 534.708 3302.08 534.708 3299.21 533.186 3297.32 530.142 3295.43 527.099 3294.48 522.479 3294.48 516.285 3294.48 512.99 3294.77 510.144 3295.36 507.745 3295.94 505.346 3296.75 503.363 3297.8 501.796 3298.85 500.23 3300.11 499.07 3301.57 498.318 3303.04 497.566 3304.64 497.19 3306.38 497.19Z" fill="#0075C2" fill-rule="evenodd"/><text fill="#000000" fill-opacity="0" font-family="Arial,Arial_MSFontService,sans-serif" font-size="37.5171" x="3294.48" y="530.018">0</text></g></svg>