<svg width="1605" height="254" xmlns="http://www.w3.org/2000/svg" xmlns:xlink="http://www.w3.org/1999/xlink" xml:space="preserve" overflow="hidden"><defs><clipPath id="clip0"><rect x="2456" y="1368" width="1605" height="254"/></clipPath></defs><g clip-path="url(#clip0)" transform="translate(-2456 -1368)"><path d="M2460.5 1493.92 4010.65 1493.92C4013.18 1493.92 4015.23 1495.97 4015.23 1498.5 4015.23 1501.03 4013.18 1503.08 4010.65 1503.08L2460.5 1503.08C2457.97 1503.08 2455.92 1501.03 2455.92 1498.5 2455.92 1495.97 2457.97 1493.92 2460.5 1493.92ZM3985.46 1478.5 4019.75 1498.5 3985.46 1518.5C3983.28 1519.78 3980.47 1519.04 3979.19 1516.85 3977.92 1514.66 3978.66 1511.86 3980.84 1510.58L4008.34 1494.54 4008.34 1502.46 3980.84 1486.42C3978.66 1485.14 3977.92 1482.34 3979.19 1480.15 3980.47 1477.96 3983.28 1477.22 3985.46 1478.5Z" fill="#D5D5D5"/><path d="M2719.5 1493.92 3759.23 1493.92C3761.76 1493.92 3763.82 1495.97 3763.82 1498.5 3763.82 1501.03 3761.76 1503.08 3759.23 1503.08L2719.5 1503.08C2716.97 1503.08 2714.92 1501.03 2714.92 1498.5 2714.92 1495.97 2716.97 1493.92 2719.5 1493.92ZM2719.5 1512.25C2711.91 1512.25 2705.75 1506.09 2705.75 1498.5 2705.75 1490.91 2711.91 1484.75 2719.5 1484.75 2727.09 1484.75 2733.25 1490.91 2733.25 1498.5 2733.25 1506.09 2727.09 1512.25 2719.5 1512.25ZM3759.23 1484.75C3766.83 1484.75 3772.98 1490.91 3772.98 1498.5 3772.98 1506.09 3766.83 1512.25 3759.23 1512.25 3751.64 1512.25 3745.48 1506.09 3745.48 1498.5 3745.48 1490.91 3751.64 1484.75 3759.23 1484.75Z" fill="#0075C2"/><g><g><g><path d="M2867.76 1476.14 2860.86 1469.24 2839 1491.09 2817.14 1469.24 2810.24 1476.14 2832.09 1498 2810.24 1519.86 2817.14 1526.76 2839 1504.91 2860.86 1526.76 2867.76 1519.86 2845.91 1498Z" fill="#F3982D"/></g></g></g><text fill="#0075C2" font-family="SimHei,SimHei_MSFontService,sans-serif" font-weight="400" font-size="55" transform="matrix(1 0 0 1 3103.26 1442)">åˆå§‹æœç´¢åŸŸ</text><text fill="#F3982D" font-family="SimHei,SimHei_MSFontService,sans-serif" font-weight="400" font-size="55" transform="matrix(1 0 0 1 2782.92 1442)">ç›®æ ‡</text><path d="M2679.89 1568.28C2679.03 1568.28 2678.18 1568.56 2677.35 1569.1 2676.52 1569.65 2675.59 1570.55 2674.57 1571.81 2673.55 1573.08 2672.72 1574.37 2672.07 1575.69 2671.43 1577.02 2670.88 1578.71 2670.44 1580.77L2670.19 1581.9C2669.93 1583.15 2669.79 1584.37 2669.79 1585.55 2669.79 1586.97 2670.1 1587.99 2670.72 1588.61 2671.34 1589.24 2672.36 1589.55 2673.79 1589.55 2674.53 1589.55 2675.22 1589.43 2675.89 1589.19 2676.55 1588.95 2677.23 1588.55 2677.91 1587.99 2678.6 1587.44 2679.26 1586.71 2679.88 1585.81 2680.49 1584.9 2681.06 1583.79 2681.58 1582.46 2682.1 1581.14 2682.5 1579.72 2682.79 1578.21 2683.08 1576.69 2683.22 1575.25 2683.22 1573.87 2683.22 1572.01 2682.95 1570.61 2682.43 1569.68 2681.9 1568.75 2681.05 1568.28 2679.89 1568.28ZM2675.19 1552.84 2676.75 1552.84 2672.02 1571.64 2672.37 1571.75C2674.11 1569.42 2675.74 1567.74 2677.26 1566.7 2678.78 1565.66 2680.3 1565.14 2681.82 1565.14 2683.77 1565.14 2685.29 1565.88 2686.37 1567.37 2687.46 1568.86 2688 1570.95 2688 1573.65 2688 1576.61 2687.4 1579.51 2686.21 1582.37 2685.02 1585.22 2683.37 1587.49 2681.26 1589.16 2679.15 1590.84 2676.78 1591.67 2674.17 1591.67 2671.79 1591.67 2669.67 1591.09 2667.83 1589.93L2665.36 1591.67 2663.64 1591.24 2670.6 1560.55C2671.01 1558.72 2671.21 1557.4 2671.21 1556.57 2671.21 1555.82 2670.99 1555.29 2670.53 1554.99 2670.07 1554.69 2669.25 1554.51 2668.07 1554.48L2668.39 1553.08ZM2658 1552.84 2659.59 1552.84 2652.98 1582.57C2652.59 1584.34 2652.39 1585.67 2652.39 1586.54 2652.39 1587.26 2652.5 1587.78 2652.74 1588.1 2652.97 1588.42 2653.34 1588.59 2653.84 1588.59 2654.38 1588.59 2654.95 1588.37 2655.56 1587.93 2656.17 1587.49 2657.03 1586.65 2658.14 1585.42L2659.67 1586.92C2657.93 1588.75 2656.51 1590 2655.41 1590.67 2654.31 1591.34 2653.08 1591.67 2651.72 1591.67 2650.55 1591.67 2649.62 1591.25 2648.92 1590.4 2648.23 1589.55 2647.88 1588.46 2647.88 1587.14 2647.88 1585.94 2648.13 1584.2 2648.63 1581.93L2653.44 1560.41C2653.65 1559.47 2653.8 1558.71 2653.89 1558.14 2653.98 1557.58 2654.03 1557.06 2654.03 1556.57 2654.03 1556.04 2653.93 1555.63 2653.73 1555.35 2653.53 1555.07 2653.25 1554.87 2652.89 1554.75 2652.52 1554.62 2651.86 1554.53 2650.91 1554.48L2651.23 1553.08Z" fill="#0075C2" fill-rule="evenodd"/><text fill="#000000" fill-opacity="0" font-family="Arial,Arial_MSFontService,sans-serif" font-size="38.833" x="2647.88" y="1586.82">ğ‘™ğ‘</text><path d="M2744.84 1558.86 2744.84 1562.88 2715.68 1575.53 2744.84 1588.18 2744.84 1592.21 2711.65 1577.41 2711.65 1573.65Z" fill="#0075C2" fill-rule="evenodd"/><text fill="#000000" fill-opacity="0" font-family="Arial,Arial_MSFontService,sans-serif" font-size="33.3545" x="2711.65" y="1588.04">&lt;</text><path d="M2779.41 1556.44C2778.18 1556.44 2777.14 1556.81 2776.31 1557.54 2775.48 1558.27 2774.81 1559.33 2774.3 1560.71 2773.79 1562.09 2773.42 1563.77 2773.21 1565.74 2772.99 1567.72 2772.89 1569.96 2772.89 1572.45 2772.89 1578.28 2773.43 1582.57 2774.51 1585.3 2775.59 1588.03 2777.27 1589.39 2779.55 1589.39 2781.71 1589.39 2783.32 1588.11 2784.37 1585.54 2785.41 1582.97 2785.94 1578.99 2785.94 1573.6 2785.94 1569.48 2785.67 1566.15 2785.13 1563.6 2784.6 1561.05 2783.85 1559.21 2782.89 1558.1 2781.93 1556.99 2780.77 1556.44 2779.41 1556.44ZM2779.55 1554.16C2783.47 1554.16 2786.39 1555.67 2788.3 1558.7 2790.22 1561.72 2791.17 1566.3 2791.17 1572.42 2791.17 1578.76 2790.15 1583.55 2788.1 1586.8 2786.05 1590.05 2783.06 1591.67 2779.12 1591.67 2775.25 1591.67 2772.37 1590.15 2770.48 1587.11 2768.59 1584.06 2767.65 1579.45 2767.65 1573.25 2767.65 1569.96 2767.94 1567.11 2768.52 1564.71 2769.1 1562.31 2769.92 1560.33 2770.97 1558.76 2772.01 1557.2 2773.27 1556.04 2774.74 1555.28 2776.21 1554.53 2777.81 1554.16 2779.55 1554.16Z" fill="#0075C2" fill-rule="evenodd"/><text fill="#000000" fill-opacity="0" font-family="Arial,Arial_MSFontService,sans-serif" font-size="37.5171" x="2767.65" y="1586.98">0</text><path d="M3725.04 1551.17C3724.18 1551.17 3723.34 1551.45 3722.51 1551.99 3721.67 1552.54 3720.75 1553.44 3719.73 1554.7 3718.71 1555.97 3717.87 1557.26 3717.23 1558.58 3716.58 1559.91 3716.04 1561.6 3715.59 1563.66L3715.35 1564.79C3715.08 1566.04 3714.95 1567.26 3714.95 1568.44 3714.95 1569.86 3715.25 1570.88 3715.87 1571.5 3716.49 1572.13 3717.51 1572.44 3718.95 1572.44 3719.68 1572.44 3720.38 1572.32 3721.04 1572.08 3721.7 1571.84 3722.38 1571.44 3723.07 1570.88 3723.76 1570.33 3724.41 1569.6 3725.03 1568.7 3725.65 1567.79 3726.22 1566.68 3726.73 1565.35 3727.25 1564.03 3727.66 1562.61 3727.94 1561.1 3728.23 1559.58 3728.37 1558.14 3728.37 1556.76 3728.37 1554.9 3728.11 1553.5 3727.58 1552.57 3727.05 1551.64 3726.21 1551.17 3725.04 1551.17ZM3683 1548C3684.14 1548 3685.05 1548.39 3685.71 1549.16 3686.37 1549.93 3686.71 1550.97 3686.71 1552.27 3686.71 1553.69 3686.43 1555.45 3685.87 1557.56L3684.69 1562.21C3684.39 1563.39 3684.17 1564.31 3684.03 1564.98 3683.9 1565.64 3683.8 1566.21 3683.74 1566.7 3683.67 1567.18 3683.64 1567.58 3683.64 1567.9 3683.64 1569.14 3683.85 1570.03 3684.26 1570.58 3684.67 1571.12 3685.34 1571.39 3686.28 1571.39 3687.03 1571.39 3687.84 1571.09 3688.71 1570.5 3689.57 1569.9 3690.5 1568.99 3691.47 1567.78 3692.45 1566.57 3693.23 1565.4 3693.82 1564.26 3694.41 1563.13 3694.9 1561.73 3695.27 1560.06L3697.82 1548.43 3702.47 1548.43 3698.55 1565.46C3698.15 1567.18 3697.96 1568.5 3697.96 1569.43 3697.96 1570.15 3698.07 1570.67 3698.31 1570.99 3698.54 1571.31 3698.91 1571.48 3699.41 1571.48 3699.94 1571.48 3700.52 1571.26 3701.13 1570.82 3701.74 1570.38 3702.59 1569.54 3703.7 1568.31L3705.24 1569.81C3703.61 1571.55 3702.22 1572.77 3701.07 1573.49 3699.93 1574.21 3698.71 1574.56 3697.42 1574.56 3696.31 1574.56 3695.42 1574.2 3694.76 1573.46 3694.1 1572.73 3693.77 1571.75 3693.77 1570.54 3693.77 1569.57 3693.98 1568.51 3694.41 1567.37L3694.09 1567.26C3692.32 1569.75 3690.64 1571.58 3689.05 1572.76 3687.47 1573.95 3685.85 1574.54 3684.18 1574.54 3682.52 1574.54 3681.24 1574.06 3680.34 1573.1 3679.45 1572.14 3679 1570.81 3679 1569.11 3679 1567.98 3679.26 1566.38 3679.78 1564.3L3681.52 1557.27C3682.01 1555.32 3682.25 1553.94 3682.25 1553.13 3682.25 1552.42 3682.13 1551.9 3681.9 1551.58 3681.67 1551.25 3681.3 1551.09 3680.8 1551.09 3680.24 1551.09 3679.66 1551.32 3679.04 1551.78 3678.42 1552.23 3677.57 1553.06 3676.5 1554.26L3674.97 1552.76C3676.49 1551.22 3677.64 1550.16 3678.41 1549.59 3679.18 1549.02 3679.92 1548.61 3680.62 1548.37 3681.33 1548.12 3682.12 1548 3683 1548ZM3720.34 1535.73 3721.9 1535.73 3717.17 1554.53 3717.52 1554.64C3719.26 1552.31 3720.89 1550.63 3722.41 1549.59 3723.93 1548.55 3725.45 1548.03 3726.98 1548.03 3728.93 1548.03 3730.45 1548.77 3731.53 1550.26 3732.61 1551.75 3733.15 1553.84 3733.15 1556.54 3733.15 1559.5 3732.56 1562.4 3731.37 1565.26 3730.18 1568.11 3728.53 1570.38 3726.41 1572.05 3724.3 1573.73 3721.94 1574.56 3719.32 1574.56 3716.94 1574.56 3714.83 1573.98 3712.98 1572.82L3710.51 1574.56 3708.8 1574.13 3715.75 1543.44C3716.16 1541.61 3716.37 1540.29 3716.37 1539.46 3716.37 1538.71 3716.14 1538.18 3715.68 1537.88 3715.23 1537.57 3714.41 1537.4 3713.23 1537.37L3713.55 1535.97Z" fill="#0075C2" fill-rule="evenodd"/><text fill="#000000" fill-opacity="0" font-family="Arial,Arial_MSFontService,sans-serif" font-size="38.833" x="3674.97" y="1569.71">ğ‘¢ğ‘</text><path d="M3756.13 1541.75 3789.32 1556.54 3789.32 1560.3 3756.13 1575.1 3756.13 1571.07 3785.29 1558.42 3756.13 1545.77Z" fill="#0075C2" fill-rule="evenodd"/><text fill="#000000" fill-opacity="0" font-family="Arial,Arial_MSFontService,sans-serif" font-size="33.3545" x="3756.13" y="1570.93">&gt;</text><path d="M3823.89 1539.33C3822.65 1539.33 3821.62 1539.7 3820.79 1540.43 3819.96 1541.16 3819.28 1542.22 3818.77 1543.6 3818.26 1544.98 3817.9 1546.66 3817.69 1548.63 3817.47 1550.61 3817.36 1552.85 3817.36 1555.34 3817.36 1561.17 3817.91 1565.46 3818.99 1568.19 3820.07 1570.92 3821.75 1572.28 3824.02 1572.28 3826.19 1572.28 3827.8 1571 3828.84 1568.43 3829.89 1565.86 3830.42 1561.88 3830.42 1556.49 3830.42 1552.37 3830.15 1549.04 3829.61 1546.49 3829.07 1543.94 3828.32 1542.1 3827.37 1540.99 3826.41 1539.88 3825.25 1539.33 3823.89 1539.33ZM3824.02 1537.05C3827.94 1537.05 3830.86 1538.56 3832.78 1541.59 3834.69 1544.61 3835.65 1549.19 3835.65 1555.31 3835.65 1561.65 3834.63 1566.44 3832.58 1569.69 3830.53 1572.94 3827.53 1574.56 3823.59 1574.56 3819.73 1574.56 3816.85 1573.04 3814.96 1570 3813.07 1566.95 3812.13 1562.34 3812.13 1556.14 3812.13 1552.85 3812.42 1550 3813 1547.6 3813.58 1545.2 3814.4 1543.22 3815.44 1541.65 3816.49 1540.09 3817.75 1538.93 3819.22 1538.17 3820.68 1537.42 3822.29 1537.05 3824.02 1537.05Z" fill="#0075C2" fill-rule="evenodd"/><text fill="#000000" fill-opacity="0" font-family="Arial,Arial_MSFontService,sans-serif" font-size="37.5171" x="3812.13" y="1569.87">0</text></g></svg>