<svg width="1605" height="491" xmlns="http://www.w3.org/2000/svg" xmlns:xlink="http://www.w3.org/1999/xlink" xml:space="preserve" overflow="hidden"><defs><clipPath id="clip0"><rect x="1676" y="1884" width="1605" height="491"/></clipPath></defs><g clip-path="url(#clip0)" transform="translate(-1676 -1884)"><path d="M2980.5 2017.5 2980.5 2277.34" stroke="#5EB7E8" stroke-width="4.58333" stroke-linecap="round" stroke-miterlimit="8" fill="none" fill-rule="evenodd"/><path d="M2460.5 2017.5 2460.5 2277.34" stroke="#5EB7E8" stroke-width="4.58333" stroke-linecap="round" stroke-miterlimit="8" fill="none" fill-rule="evenodd"/><path d="M1680.5 2012.92 3230.65 2012.92C3233.18 2012.92 3235.23 2014.97 3235.23 2017.5 3235.23 2020.03 3233.18 2022.08 3230.65 2022.08L1680.5 2022.08C1677.97 2022.08 1675.92 2020.03 1675.92 2017.5 1675.92 2014.97 1677.97 2012.92 1680.5 2012.92ZM3205.46 1997.5 3239.75 2017.5 3205.46 2037.5C3203.28 2038.78 3200.47 2038.04 3199.19 2035.85 3197.92 2033.66 3198.66 2030.86 3200.84 2029.58L3228.34 2013.54 3228.34 2021.46 3200.84 2005.42C3198.66 2004.14 3197.92 2001.34 3199.19 1999.15 3200.47 1996.96 3203.28 1996.22 3205.46 1997.5Z" fill="#D5D5D5"/><path d="M1940.5 2012.92 2200.34 2012.92C2202.87 2012.92 2204.93 2014.97 2204.93 2017.5 2204.93 2020.03 2202.87 2022.08 2200.34 2022.08L1940.5 2022.08C1937.97 2022.08 1935.92 2020.03 1935.92 2017.5 1935.92 2014.97 1937.97 2012.92 1940.5 2012.92ZM1940.5 2031.25C1932.91 2031.25 1926.75 2025.09 1926.75 2017.5 1926.75 2009.91 1932.91 2003.75 1940.5 2003.75 1948.09 2003.75 1954.25 2009.91 1954.25 2017.5 1954.25 2025.09 1948.09 2031.25 1940.5 2031.25ZM2200.34 2003.75C2207.94 2003.75 2214.09 2009.91 2214.09 2017.5 2214.09 2025.09 2207.94 2031.25 2200.34 2031.25 2192.75 2031.25 2186.59 2025.09 2186.59 2017.5 2186.59 2009.91 2192.75 2003.75 2200.34 2003.75Z" fill="#0075C2"/><path d="M1940.5 2116.92 2460.24 2116.92C2462.77 2116.92 2464.83 2118.97 2464.83 2121.5 2464.83 2124.03 2462.77 2126.08 2460.24 2126.08L1940.5 2126.08C1937.97 2126.08 1935.92 2124.03 1935.92 2121.5 1935.92 2118.97 1937.97 2116.92 1940.5 2116.92ZM1940.5 2135.25C1932.91 2135.25 1926.75 2129.09 1926.75 2121.5 1926.75 2113.91 1932.91 2107.75 1940.5 2107.75 1948.09 2107.75 1954.25 2113.91 1954.25 2121.5 1954.25 2129.09 1948.09 2135.25 1940.5 2135.25ZM2460.24 2107.75C2467.84 2107.75 2473.99 2113.91 2473.99 2121.5 2473.99 2129.09 2467.84 2135.25 2460.24 2135.25 2452.65 2135.25 2446.49 2129.09 2446.49 2121.5 2446.49 2113.91 2452.65 2107.75 2460.24 2107.75Z" fill="#0075C2"/><path d="M1940.5 2220.92 2979.99 2220.92C2982.52 2220.92 2984.57 2222.97 2984.57 2225.5 2984.57 2228.03 2982.52 2230.08 2979.99 2230.08L1940.5 2230.08C1937.97 2230.08 1935.92 2228.03 1935.92 2225.5 1935.92 2222.97 1937.97 2220.92 1940.5 2220.92ZM1940.5 2239.25C1932.91 2239.25 1926.75 2233.09 1926.75 2225.5 1926.75 2217.91 1932.91 2211.75 1940.5 2211.75 1948.09 2211.75 1954.25 2217.91 1954.25 2225.5 1954.25 2233.09 1948.09 2239.25 1940.5 2239.25ZM2979.99 2211.75C2987.58 2211.75 2993.74 2217.91 2993.74 2225.5 2993.74 2233.09 2987.58 2239.25 2979.99 2239.25 2972.39 2239.25 2966.24 2233.09 2966.24 2225.5 2966.24 2217.91 2972.39 2211.75 2979.99 2211.75Z" fill="#0075C2"/><g><g><g><path d="M2917.76 1995.14 2910.86 1988.24 2889 2010.09 2867.14 1988.24 2860.24 1995.14 2882.09 2017 2860.24 2038.86 2867.14 2045.76 2889 2023.91 2910.86 2045.76 2917.76 2038.86 2895.91 2017Z" fill="#F3982D"/></g></g></g><text fill="#F3982D" font-family="SimHei,SimHei_MSFontService,sans-serif" font-weight="400" font-size="55" transform="matrix(1 0 0 1 2832.8 1958)">目标</text><text fill="#0075C2" font-family="SimHei,SimHei_MSFontService,sans-serif" font-weight="400" font-size="55" transform="matrix(1 0 0 1 1714.49 2142)">拓展</text><text fill="#0075C2" font-family="Arial,Arial_MSFontService,sans-serif" font-weight="400" font-size="55" transform="matrix(1 0 0 1 1824.49 2142)">1</text><text fill="#0075C2" font-family="SimHei,SimHei_MSFontService,sans-serif" font-weight="400" font-size="55" transform="matrix(1 0 0 1 1932.56 1958)">初始搜索域</text><text fill="#0075C2" font-family="SimHei,SimHei_MSFontService,sans-serif" font-weight="400" font-size="55" transform="matrix(1 0 0 1 1714.49 2248)">拓展</text><text fill="#0075C2" font-family="Arial,Arial_MSFontService,sans-serif" font-weight="400" font-size="55" transform="matrix(1 0 0 1 1824.49 2248)">2</text><text fill="#666666" font-family="Arial,Arial_MSFontService,sans-serif" font-weight="400" font-size="46" transform="matrix(1 0 0 1 3053.86 2242)">x2</text><text fill="#666666" font-family="Arial,Arial_MSFontService,sans-serif" font-weight="400" font-size="46" transform="matrix(1 0 0 1 2534.08 2138)">x2</text><path d="M2483.42 2249.21 2957.33 2249.21C2958.59 2249.21 2959.62 2250.23 2959.62 2251.5 2959.62 2252.77 2958.59 2253.79 2957.33 2253.79L2483.42 2253.79C2482.15 2253.79 2481.12 2252.77 2481.12 2251.5 2481.12 2250.23 2482.15 2249.21 2483.42 2249.21ZM2488 2260.67 2460.5 2251.5 2488 2242.33ZM2952.74 2242.33 2980.24 2251.5 2952.74 2260.67Z" fill="#5EB7E8"/><text fill="#5EB7E8" font-family="SimHei,SimHei_MSFontService,sans-serif" font-weight="400" font-size="46" transform="matrix(1 0 0 1 2585.21 2339)">二分搜索区域</text><text fill="#5EB7E8" font-family="Cambria Math,Cambria Math_MSFontService,sans-serif" font-weight="400" font-size="41" transform="matrix(1 0 0 1 2441.24 2337)">𝑙𝑏</text><text fill="#5EB7E8" font-family="Cambria Math,Cambria Math_MSFontService,sans-serif" font-weight="400" font-size="41" transform="matrix(1 0 0 1 2953.92 2337)">𝑢𝑏</text><text fill="#0075C2" font-family="Cambria Math,Cambria Math_MSFontService,sans-serif" font-weight="400" font-size="41" transform="matrix(1 0 0 1 1921.72 2072)">𝑙𝑏</text><text fill="#0075C2" font-family="Cambria Math,Cambria Math_MSFontService,sans-serif" font-weight="400" font-size="41" transform="matrix(1 0 0 1 2176.41 2072)">𝑢𝑏</text></g></svg>