<svg width="1605" height="240" xmlns="http://www.w3.org/2000/svg" xmlns:xlink="http://www.w3.org/1999/xlink" xml:space="preserve" overflow="hidden"><defs><clipPath id="clip0"><rect x="2456" y="844" width="1605" height="240"/></clipPath></defs><g clip-path="url(#clip0)" transform="translate(-2456 -844)"><path d="M2460.5 973.917 4010.65 973.917C4013.18 973.917 4015.23 975.969 4015.23 978.501 4015.23 981.032 4013.18 983.084 4010.65 983.084L2460.5 983.083C2457.97 983.083 2455.92 981.031 2455.92 978.5 2455.92 975.969 2457.97 973.917 2460.5 973.917ZM3985.46 958.5 4019.75 978.501 3985.46 998.501C3983.28 999.777 3980.47 999.038 3979.19 996.852 3977.92 994.665 3978.66 991.859 3980.84 990.583L4008.34 974.542 4008.34 982.46 3980.84 966.418C3978.66 965.142 3977.92 962.336 3979.19 960.149 3980.47 957.963 3983.28 957.224 3985.46 958.5Z" fill="#D5D5D5"/><path d="M3239.5 973.917 3759.24 973.917C3761.77 973.917 3763.83 975.969 3763.83 978.501 3763.83 981.032 3761.77 983.084 3759.24 983.084L3239.5 983.083C3236.97 983.083 3234.92 981.031 3234.92 978.5 3234.92 975.969 3236.97 973.917 3239.5 973.917ZM3239.5 992.25C3231.91 992.25 3225.75 986.094 3225.75 978.5 3225.75 970.906 3231.91 964.75 3239.5 964.75 3247.09 964.75 3253.25 970.906 3253.25 978.5 3253.25 986.094 3247.09 992.25 3239.5 992.25ZM3759.24 964.751C3766.84 964.751 3772.99 970.907 3772.99 978.501 3772.99 986.094 3766.84 992.251 3759.24 992.251 3751.65 992.251 3745.49 986.094 3745.49 978.501 3745.49 970.907 3751.65 964.751 3759.24 964.751Z" fill="#0075C2"/><g><g><g><path d="M2867.76 956.144 2860.86 949.238 2839 971.094 2817.14 949.238 2810.24 956.144 2832.09 978 2810.24 999.856 2817.14 1006.76 2839 984.906 2860.86 1006.76 2867.76 999.856 2845.91 978Z" fill="#F3982D"/></g></g></g><text fill="#0075C2" font-family="SimHei,SimHei_MSFontService,sans-serif" font-weight="400" font-size="55" transform="matrix(1 0 0 1 3361.86 918)">åˆå§‹æœç´¢åŸŸ</text><text fill="#F3982D" font-family="SimHei,SimHei_MSFontService,sans-serif" font-weight="400" font-size="55" transform="matrix(1 0 0 1 2782.92 918)">ç›®æ ‡</text><path d="M3199.63 1031.06C3198.77 1031.06 3197.93 1031.33 3197.09 1031.88 3196.26 1032.42 3195.33 1033.33 3194.31 1034.59 3193.29 1035.85 3192.46 1037.15 3191.82 1038.47 3191.17 1039.8 3190.63 1041.49 3190.18 1043.55L3189.94 1044.67C3189.67 1045.93 3189.53 1047.15 3189.53 1048.33 3189.53 1049.74 3189.84 1050.76 3190.46 1051.39 3191.08 1052.02 3192.1 1052.33 3193.54 1052.33 3194.27 1052.33 3194.97 1052.21 3195.63 1051.97 3196.29 1051.72 3196.97 1051.33 3197.66 1050.77 3198.35 1050.22 3199 1049.49 3199.62 1048.58 3200.24 1047.68 3200.8 1046.56 3201.32 1045.24 3201.84 1043.91 3202.25 1042.49 3202.53 1040.98 3202.82 1039.47 3202.96 1038.02 3202.96 1036.64 3202.96 1034.78 3202.7 1033.39 3202.17 1032.46 3201.64 1031.52 3200.8 1031.06 3199.63 1031.06ZM3194.93 1015.62 3196.49 1015.62 3191.76 1034.42 3192.11 1034.52C3193.85 1032.2 3195.48 1030.51 3197 1029.47 3198.52 1028.44 3200.04 1027.92 3201.57 1027.92 3203.52 1027.92 3205.03 1028.66 3206.12 1030.15 3207.2 1031.63 3207.74 1033.73 3207.74 1036.43 3207.74 1039.38 3207.15 1042.29 3205.96 1045.14 3204.77 1048 3203.11 1050.27 3201 1051.94 3198.89 1053.61 3196.53 1054.45 3193.91 1054.45 3191.53 1054.45 3189.42 1053.87 3187.57 1052.7L3185.1 1054.45 3183.38 1054.02 3190.34 1023.32C3190.75 1021.5 3190.96 1020.17 3190.96 1019.35 3190.96 1018.6 3190.73 1018.07 3190.27 1017.77 3189.82 1017.46 3189 1017.29 3187.82 1017.26L3188.14 1015.86ZM3177.74 1015.62 3179.33 1015.62 3172.72 1045.35C3172.33 1047.12 3172.13 1048.44 3172.13 1049.32 3172.13 1050.04 3172.25 1050.56 3172.48 1050.88 3172.71 1051.2 3173.08 1051.36 3173.58 1051.36 3174.12 1051.36 3174.69 1051.14 3175.3 1050.7 3175.91 1050.27 3176.77 1049.43 3177.88 1048.19L3179.41 1049.7C3177.67 1051.52 3176.25 1052.77 3175.15 1053.44 3174.05 1054.11 3172.82 1054.45 3171.46 1054.45 3170.3 1054.45 3169.36 1054.02 3168.67 1053.17 3167.97 1052.32 3167.62 1051.24 3167.62 1049.91 3167.62 1048.71 3167.87 1046.98 3168.37 1044.7L3173.18 1023.19C3173.39 1022.24 3173.55 1021.48 3173.64 1020.92 3173.72 1020.36 3173.77 1019.83 3173.77 1019.35 3173.77 1018.81 3173.67 1018.41 3173.47 1018.13 3173.28 1017.85 3172.99 1017.65 3172.63 1017.52 3172.26 1017.4 3171.6 1017.31 3170.65 1017.26L3170.98 1015.86Z" fill="#0075C2" fill-rule="evenodd"/><text fill="#000000" fill-opacity="0" font-family="Arial,Arial_MSFontService,sans-serif" font-size="38.833" x="3167.62" y="1049.6">ğ‘™ğ‘</text><path d="M3231.39 1021.63 3264.59 1036.43 3264.59 1040.19 3231.39 1054.99 3231.39 1050.96 3260.56 1038.31 3231.39 1025.66Z" fill="#0075C2" fill-rule="evenodd"/><text fill="#000000" fill-opacity="0" font-family="Arial,Arial_MSFontService,sans-serif" font-size="33.3545" x="3231.39" y="1050.82">&gt;</text><path d="M3299.15 1019.22C3297.92 1019.22 3296.89 1019.58 3296.05 1020.32 3295.22 1021.05 3294.55 1022.11 3294.04 1023.49 3293.53 1024.86 3293.17 1026.54 3292.95 1028.52 3292.74 1030.5 3292.63 1032.73 3292.63 1035.22 3292.63 1041.06 3293.17 1045.34 3294.25 1048.07 3295.34 1050.8 3297.02 1052.17 3299.29 1052.17 3301.46 1052.17 3303.06 1050.88 3304.11 1048.31 3305.16 1045.74 3305.68 1041.77 3305.68 1036.38 3305.68 1032.26 3305.41 1028.92 3304.88 1026.37 3304.34 1023.82 3303.59 1021.99 3302.63 1020.88 3301.67 1019.77 3300.52 1019.22 3299.15 1019.22ZM3299.29 1016.93C3303.21 1016.93 3306.13 1018.45 3308.04 1021.47 3309.96 1024.5 3310.92 1029.07 3310.92 1035.19 3310.92 1041.53 3309.89 1046.33 3307.84 1049.58 3305.79 1052.83 3302.8 1054.45 3298.86 1054.45 3294.99 1054.45 3292.11 1052.93 3290.23 1049.88 3288.34 1046.84 3287.39 1042.22 3287.39 1036.03 3287.39 1032.73 3287.68 1029.89 3288.26 1027.49 3288.85 1025.09 3289.66 1023.11 3290.71 1021.54 3291.76 1019.97 3293.01 1018.81 3294.48 1018.06 3295.95 1017.31 3297.55 1016.93 3299.29 1016.93Z" fill="#0075C2" fill-rule="evenodd"/><text fill="#000000" fill-opacity="0" font-family="Arial,Arial_MSFontService,sans-serif" font-size="37.5171" x="3287.39" y="1049.76">0</text><path d="M3725.04 1031.06C3724.18 1031.06 3723.34 1031.33 3722.51 1031.88 3721.67 1032.42 3720.75 1033.33 3719.73 1034.59 3718.71 1035.85 3717.87 1037.15 3717.23 1038.47 3716.58 1039.8 3716.04 1041.49 3715.59 1043.55L3715.35 1044.67C3715.08 1045.93 3714.95 1047.15 3714.95 1048.33 3714.95 1049.74 3715.25 1050.76 3715.87 1051.39 3716.49 1052.02 3717.51 1052.33 3718.95 1052.33 3719.68 1052.33 3720.38 1052.21 3721.04 1051.97 3721.7 1051.72 3722.38 1051.33 3723.07 1050.77 3723.76 1050.22 3724.41 1049.49 3725.03 1048.58 3725.65 1047.68 3726.22 1046.56 3726.73 1045.24 3727.25 1043.91 3727.66 1042.49 3727.94 1040.98 3728.23 1039.47 3728.37 1038.02 3728.37 1036.64 3728.37 1034.78 3728.11 1033.39 3727.58 1032.46 3727.05 1031.52 3726.21 1031.06 3725.04 1031.06ZM3683 1027.89C3684.14 1027.89 3685.05 1028.27 3685.71 1029.04 3686.37 1029.81 3686.71 1030.85 3686.71 1032.16 3686.71 1033.57 3686.43 1035.34 3685.87 1037.45L3684.69 1042.1C3684.39 1043.28 3684.17 1044.2 3684.03 1044.86 3683.9 1045.53 3683.8 1046.1 3683.74 1046.58 3683.67 1047.06 3683.64 1047.47 3683.64 1047.79 3683.64 1049.03 3683.85 1049.92 3684.26 1050.46 3684.67 1051.01 3685.34 1051.28 3686.28 1051.28 3687.03 1051.28 3687.84 1050.98 3688.71 1050.38 3689.57 1049.78 3690.5 1048.88 3691.47 1047.67 3692.45 1046.46 3693.23 1045.29 3693.82 1044.15 3694.41 1043.01 3694.9 1041.61 3695.27 1039.95L3697.82 1028.32 3702.47 1028.32 3698.55 1045.35C3698.15 1047.06 3697.96 1048.39 3697.96 1049.32 3697.96 1050.04 3698.07 1050.56 3698.31 1050.88 3698.54 1051.2 3698.91 1051.36 3699.41 1051.36 3699.94 1051.36 3700.52 1051.14 3701.13 1050.7 3701.74 1050.27 3702.59 1049.43 3703.7 1048.19L3705.24 1049.7C3703.61 1051.43 3702.22 1052.66 3701.07 1053.38 3699.93 1054.09 3698.71 1054.45 3697.42 1054.45 3696.31 1054.45 3695.42 1054.08 3694.76 1053.35 3694.1 1052.61 3693.77 1051.64 3693.77 1050.42 3693.77 1049.45 3693.98 1048.4 3694.41 1047.25L3694.09 1047.15C3692.32 1049.63 3690.64 1051.47 3689.05 1052.65 3687.47 1053.83 3685.85 1054.42 3684.18 1054.42 3682.52 1054.42 3681.24 1053.94 3680.34 1052.99 3679.45 1052.03 3679 1050.7 3679 1049 3679 1047.87 3679.26 1046.27 3679.78 1044.19L3681.52 1037.16C3682.01 1035.2 3682.25 1033.82 3682.25 1033.02 3682.25 1032.3 3682.13 1031.78 3681.9 1031.46 3681.67 1031.14 3681.3 1030.98 3680.8 1030.98 3680.24 1030.98 3679.66 1031.21 3679.04 1031.66 3678.42 1032.12 3677.57 1032.95 3676.5 1034.15L3674.97 1032.64C3676.49 1031.1 3677.64 1030.05 3678.41 1029.47 3679.18 1028.9 3679.92 1028.49 3680.62 1028.25 3681.33 1028.01 3682.12 1027.89 3683 1027.89ZM3720.34 1015.62 3721.9 1015.62 3717.17 1034.42 3717.52 1034.52C3719.26 1032.2 3720.89 1030.51 3722.41 1029.47 3723.93 1028.44 3725.45 1027.92 3726.98 1027.92 3728.93 1027.92 3730.45 1028.66 3731.53 1030.15 3732.61 1031.63 3733.15 1033.73 3733.15 1036.43 3733.15 1039.38 3732.56 1042.29 3731.37 1045.14 3730.18 1048 3728.53 1050.27 3726.41 1051.94 3724.3 1053.61 3721.94 1054.45 3719.32 1054.45 3716.94 1054.45 3714.83 1053.87 3712.98 1052.7L3710.51 1054.45 3708.8 1054.02 3715.75 1023.32C3716.16 1021.5 3716.37 1020.17 3716.37 1019.35 3716.37 1018.6 3716.14 1018.07 3715.68 1017.77 3715.23 1017.46 3714.41 1017.29 3713.23 1017.26L3713.55 1015.86Z" fill="#0075C2" fill-rule="evenodd"/><text fill="#000000" fill-opacity="0" font-family="Arial,Arial_MSFontService,sans-serif" font-size="38.833" x="3674.97" y="1049.6">ğ‘¢ğ‘</text><path d="M3756.13 1021.63 3789.32 1036.43 3789.32 1040.19 3756.13 1054.99 3756.13 1050.96 3785.29 1038.31 3756.13 1025.66Z" fill="#0075C2" fill-rule="evenodd"/><text fill="#000000" fill-opacity="0" font-family="Arial,Arial_MSFontService,sans-serif" font-size="33.3545" x="3756.13" y="1050.82">&gt;</text><path d="M3823.89 1019.22C3822.65 1019.22 3821.62 1019.58 3820.79 1020.32 3819.96 1021.05 3819.28 1022.11 3818.77 1023.49 3818.26 1024.86 3817.9 1026.54 3817.69 1028.52 3817.47 1030.5 3817.36 1032.73 3817.36 1035.22 3817.36 1041.06 3817.91 1045.34 3818.99 1048.07 3820.07 1050.8 3821.75 1052.17 3824.02 1052.17 3826.19 1052.17 3827.8 1050.88 3828.84 1048.31 3829.89 1045.74 3830.42 1041.77 3830.42 1036.38 3830.42 1032.26 3830.15 1028.92 3829.61 1026.37 3829.07 1023.82 3828.32 1021.99 3827.37 1020.88 3826.41 1019.77 3825.25 1019.22 3823.89 1019.22ZM3824.02 1016.93C3827.94 1016.93 3830.86 1018.45 3832.78 1021.47 3834.69 1024.5 3835.65 1029.07 3835.65 1035.19 3835.65 1041.53 3834.63 1046.33 3832.58 1049.58 3830.53 1052.83 3827.53 1054.45 3823.59 1054.45 3819.73 1054.45 3816.85 1052.93 3814.96 1049.88 3813.07 1046.84 3812.13 1042.22 3812.13 1036.03 3812.13 1032.73 3812.42 1029.89 3813 1027.49 3813.58 1025.09 3814.4 1023.11 3815.44 1021.54 3816.49 1019.97 3817.75 1018.81 3819.22 1018.06 3820.68 1017.31 3822.29 1016.93 3824.02 1016.93Z" fill="#0075C2" fill-rule="evenodd"/><text fill="#000000" fill-opacity="0" font-family="Arial,Arial_MSFontService,sans-serif" font-size="37.5171" x="3812.13" y="1049.76">0</text></g></svg>